<svg xmlns="http://www.w3.org/2000/svg" width="75" viewBox="0 0 75 75" height="75" version="1.0"><defs><clipPath id="a"><path d="M 21 17.363281 L 52 17.363281 L 52 56 L 21 56 Z M 21 17.363281"/></clipPath><clipPath id="b"><path d="M 43 37 L 66 37 L 66 59.363281 L 43 59.363281 Z M 43 37"/></clipPath></defs><path fill="#E3E5EC" d="M 37.5 0 C 16.789062 0 0 16.789062 0 37.5 C 0 58.210938 16.789062 75 37.5 75 C 58.210938 75 75 58.210938 75 37.5 C 75 16.789062 58.210938 0 37.5 0 Z M 37.5 0"/><path fill="#083F89" d="M 35.363281 28.351562 C 35.914062 28.351562 36.355469 28.140625 36.695312 27.71875 C 37.03125 27.296875 37.203125 26.75 37.203125 26.074219 C 37.203125 25.390625 37.035156 24.839844 36.699219 24.421875 C 36.363281 24.003906 35.917969 23.792969 35.363281 23.792969 C 34.828125 23.792969 34.386719 24 34.042969 24.414062 C 33.695312 24.832031 33.523438 25.375 33.523438 26.050781 C 33.523438 26.75 33.691406 27.308594 34.027344 27.726562 C 34.359375 28.144531 34.808594 28.351562 35.363281 28.351562 Z M 35.363281 28.351562"/><path fill="#083F89" d="M 44.457031 28 C 44.617188 27.851562 44.695312 27.671875 44.695312 27.464844 C 44.695312 27.246094 44.617188 27.058594 44.457031 26.902344 C 44.300781 26.75 44.113281 26.671875 43.890625 26.671875 L 42.625 26.671875 L 42.625 28.222656 L 43.878906 28.222656 C 44.109375 28.222656 44.300781 28.148438 44.457031 28 Z M 44.457031 28"/><path fill="#083F89" d="M 43.929688 25.078125 C 44.085938 24.945312 44.164062 24.78125 44.164062 24.589844 C 44.164062 24.40625 44.089844 24.242188 43.945312 24.101562 C 43.800781 23.964844 43.625 23.894531 43.417969 23.894531 L 42.632812 23.894531 L 42.632812 25.277344 L 43.398438 25.277344 C 43.597656 25.277344 43.777344 25.210938 43.929688 25.078125 Z M 43.929688 25.078125"/><g clip-path="url(#a)"><path fill="#083F89" d="M 22.703125 55.113281 L 49.492188 55.113281 C 50.378906 55.113281 51.105469 54.425781 51.160156 53.5625 C 51.050781 53.566406 50.941406 53.570312 50.832031 53.570312 C 50.578125 53.570312 50.328125 53.558594 50.082031 53.535156 C 46.535156 53.238281 43.578125 50.847656 42.472656 47.621094 L 40.015625 47.621094 C 39.535156 47.621094 39.152344 47.238281 39.152344 46.765625 C 39.152344 46.292969 39.539062 45.910156 40.015625 45.910156 L 42.078125 45.910156 C 42.035156 45.558594 42.007812 45.195312 42.007812 44.828125 C 42.007812 43.878906 42.164062 42.960938 42.453125 42.101562 L 26.128906 42.101562 C 25.652344 42.101562 25.265625 41.71875 25.265625 41.246094 C 25.265625 40.777344 25.652344 40.394531 26.128906 40.394531 L 43.238281 40.394531 C 44.65625 38.023438 47.171875 36.367188 50.085938 36.125 C 50.332031 36.105469 50.582031 36.09375 50.832031 36.09375 C 50.941406 36.09375 51.054688 36.097656 51.164062 36.101562 L 51.164062 19.027344 C 51.164062 18.113281 50.414062 17.371094 49.492188 17.371094 L 22.703125 17.371094 C 21.78125 17.371094 21.03125 18.113281 21.03125 19.027344 L 21.03125 53.457031 C 21.027344 54.371094 21.78125 55.113281 22.703125 55.113281 Z M 40.996094 23.285156 C 40.996094 23.046875 41.074219 22.851562 41.238281 22.699219 C 41.398438 22.546875 41.59375 22.46875 41.832031 22.46875 L 43.558594 22.46875 C 44.230469 22.46875 44.761719 22.640625 45.164062 22.980469 C 45.5625 23.324219 45.761719 23.78125 45.761719 24.351562 C 45.761719 24.578125 45.726562 24.78125 45.660156 24.96875 C 45.59375 25.152344 45.507812 25.300781 45.410156 25.40625 C 45.308594 25.511719 45.140625 25.628906 44.90625 25.753906 C 45.878906 25.972656 46.363281 26.558594 46.363281 27.515625 C 46.363281 28.132812 46.152344 28.644531 45.726562 29.042969 C 45.300781 29.445312 44.753906 29.644531 44.082031 29.644531 L 41.851562 29.644531 C 41.601562 29.644531 41.398438 29.566406 41.238281 29.414062 C 41.078125 29.257812 40.996094 29.054688 40.996094 28.808594 Z M 32.820312 23.378906 C 33.484375 22.6875 34.335938 22.339844 35.375 22.339844 C 36.398438 22.339844 37.242188 22.691406 37.90625 23.390625 C 38.570312 24.089844 38.902344 24.980469 38.902344 26.0625 C 38.902344 27.132812 38.570312 28.019531 37.90625 28.726562 C 37.242188 29.433594 36.394531 29.785156 35.363281 29.785156 C 34.339844 29.785156 33.492188 29.4375 32.824219 28.734375 C 32.15625 28.035156 31.824219 27.136719 31.824219 26.042969 C 31.824219 24.960938 32.15625 24.074219 32.820312 23.378906 Z M 25.898438 28.125 C 26.035156 27.984375 26.207031 27.914062 26.40625 27.914062 C 26.546875 27.914062 26.75 27.988281 27.019531 28.132812 C 27.199219 28.234375 27.355469 28.28125 27.480469 28.28125 C 27.875 28.28125 28.074219 28.011719 28.074219 27.464844 L 28.074219 23.195312 C 28.074219 22.984375 28.15625 22.796875 28.316406 22.628906 C 28.476562 22.464844 28.671875 22.378906 28.898438 22.378906 C 29.113281 22.378906 29.300781 22.460938 29.460938 22.617188 C 29.621094 22.777344 29.703125 22.972656 29.703125 23.195312 L 29.703125 27.4375 C 29.703125 28.171875 29.554688 28.71875 29.261719 29.070312 C 28.878906 29.527344 28.320312 29.757812 27.582031 29.757812 C 27.074219 29.757812 26.632812 29.644531 26.257812 29.421875 C 25.882812 29.199219 25.695312 28.941406 25.695312 28.640625 C 25.691406 28.433594 25.761719 28.261719 25.898438 28.125 Z M 26.476562 34.28125 L 44.855469 34.28125 C 45.332031 34.28125 45.71875 34.664062 45.71875 35.136719 C 45.71875 35.609375 45.332031 35.992188 44.855469 35.992188 L 26.476562 35.992188 C 26 35.992188 25.613281 35.609375 25.613281 35.136719 C 25.613281 34.664062 26 34.28125 26.476562 34.28125 Z M 26.128906 45.910156 L 35.492188 45.910156 C 35.96875 45.910156 36.355469 46.292969 36.355469 46.765625 C 36.355469 47.238281 35.96875 47.621094 35.492188 47.621094 L 26.128906 47.621094 C 25.652344 47.621094 25.265625 47.238281 25.265625 46.765625 C 25.265625 46.292969 25.652344 45.910156 26.128906 45.910156 Z M 26.128906 45.910156"/></g><g clip-path="url(#b)"><path fill="#083F89" d="M 43.515625 44.828125 C 43.515625 48.820312 46.800781 52.074219 50.832031 52.074219 C 52.644531 52.074219 54.304688 51.414062 55.585938 50.328125 L 56.652344 51.386719 L 57.011719 51.742188 C 56.4375 52.828125 56.609375 54.203125 57.527344 55.117188 L 60.960938 58.515625 C 61.511719 59.058594 62.238281 59.355469 63.015625 59.355469 C 63.792969 59.355469 64.523438 59.058594 65.070312 58.515625 C 65.617188 57.976562 65.917969 57.253906 65.917969 56.480469 C 65.917969 55.710938 65.617188 54.988281 65.070312 54.449219 L 61.636719 51.042969 C 61.089844 50.503906 60.359375 50.203125 59.582031 50.203125 C 59.101562 50.203125 58.640625 50.316406 58.230469 50.53125 L 57.832031 50.136719 L 56.753906 49.070312 C 57.628906 47.875 58.148438 46.410156 58.148438 44.828125 C 58.148438 40.839844 54.859375 37.582031 50.832031 37.582031 C 46.800781 37.582031 43.515625 40.839844 43.515625 44.828125 Z M 56.691406 44.828125 C 56.691406 48.027344 54.058594 50.632812 50.832031 50.632812 C 47.605469 50.632812 44.976562 48.027344 44.976562 44.828125 C 44.976562 41.636719 47.605469 39.03125 50.832031 39.03125 C 54.058594 39.03125 56.691406 41.636719 56.691406 44.828125 Z M 56.691406 44.828125"/></g></svg>