<svg xmlns="http://www.w3.org/2000/svg" width="75" viewBox="0 0 75 75" height="75" version="1.0"><defs><clipPath id="a"><path d="M 38 22.84375 L 61.574219 22.84375 L 61.574219 48 L 38 48 Z M 38 22.84375"/></clipPath><clipPath id="b"><path d="M 13.574219 22.84375 L 37 22.84375 L 37 48 L 13.574219 48 Z M 13.574219 22.84375"/></clipPath><clipPath id="c"><path d="M 25 26 L 50 26 L 50 52.09375 L 25 52.09375 Z M 25 26"/></clipPath></defs><path fill="#E3E5EC" d="M 37.5 0 C 16.789062 0 0 16.789062 0 37.5 C 0 58.210938 16.789062 75 37.5 75 C 58.210938 75 75 58.210938 75 37.5 C 75 16.789062 58.210938 0 37.5 0 Z M 37.5 0"/><g clip-path="url(#a)"><path fill="#083F89" d="M 61.554688 44.03125 C 61.472656 41.902344 60.285156 39.964844 58.328125 38.535156 C 57.425781 37.875 56.359375 37.324219 55.160156 36.914062 C 56.910156 35.457031 58.023438 33.265625 58.023438 30.816406 C 58.023438 26.425781 54.445312 22.867188 50.035156 22.867188 C 45.621094 22.867188 42.042969 26.425781 42.042969 30.816406 C 42.042969 33.265625 43.15625 35.457031 44.90625 36.914062 C 43.710938 37.324219 42.644531 37.875 41.742188 38.535156 C 39.785156 39.964844 38.597656 41.902344 38.515625 44.03125 C 38.484375 44.78125 38.570312 45.410156 38.742188 45.949219 C 41.734375 46.683594 45.691406 47.132812 50.035156 47.132812 C 54.386719 47.132812 58.355469 46.679688 61.347656 45.945312 C 61.507812 45.40625 61.582031 44.777344 61.554688 44.03125"/></g><g clip-path="url(#b)"><path fill="#083F89" d="M 36.644531 44.03125 C 36.566406 41.902344 35.375 39.964844 33.417969 38.535156 C 32.515625 37.875 31.449219 37.324219 30.253906 36.914062 C 32.003906 35.457031 33.117188 33.265625 33.117188 30.816406 C 33.117188 26.425781 29.539062 22.867188 25.125 22.867188 C 20.714844 22.867188 17.136719 26.425781 17.136719 30.816406 C 17.136719 33.265625 18.25 35.457031 20 36.914062 C 18.804688 37.324219 17.738281 37.875 16.835938 38.535156 C 14.878906 39.964844 13.6875 41.902344 13.605469 44.03125 C 13.578125 44.78125 13.660156 45.410156 13.835938 45.949219 C 16.824219 46.683594 20.785156 47.132812 25.125 47.132812 C 29.480469 47.132812 33.449219 46.679688 36.4375 45.945312 C 36.601562 45.40625 36.675781 44.777344 36.644531 44.03125"/></g><g clip-path="url(#c)"><path fill="#5BA1C5" d="M 49.828125 48.792969 C 49.742188 46.527344 48.476562 44.46875 46.394531 42.949219 C 45.4375 42.25 44.304688 41.664062 43.03125 41.226562 C 44.890625 39.675781 46.074219 37.347656 46.074219 34.746094 C 46.074219 30.078125 42.273438 26.292969 37.582031 26.292969 C 32.886719 26.292969 29.085938 30.078125 29.085938 34.746094 C 29.085938 37.347656 30.269531 39.675781 32.128906 41.226562 C 30.859375 41.664062 29.726562 42.25 28.765625 42.949219 C 26.6875 44.46875 25.421875 46.527344 25.335938 48.792969 C 25.304688 49.589844 25.390625 50.257812 25.578125 50.828125 C 28.757812 51.609375 32.964844 52.085938 37.582031 52.085938 C 42.207031 52.085938 46.425781 51.609375 49.605469 50.824219 C 49.777344 50.253906 49.855469 49.585938 49.828125 48.792969"/></g></svg>