<svg xmlns="http://www.w3.org/2000/svg" width="75" viewBox="0 0 75 75" height="75" version="1.0"><defs><clipPath id="a"><path d="M 15.804688 16.789062 L 59.304688 16.789062 L 59.304688 56.539062 L 15.804688 56.539062 Z M 15.804688 16.789062"/></clipPath></defs><path fill="#E3E5EC" d="M 37.5 0 C 16.789062 0 0 16.789062 0 37.5 C 0 58.210938 16.789062 75 37.5 75 C 58.210938 75 75 58.210938 75 37.5 C 75 16.789062 58.210938 0 37.5 0 Z M 37.5 0"/><g clip-path="url(#a)"><path fill="#083F89" d="M 18.652344 16.789062 C 17.089844 16.789062 15.816406 18.066406 15.816406 19.628906 L 15.816406 25.308594 L 59.289062 25.308594 L 59.289062 23.414062 C 59.289062 21.851562 58.015625 20.578125 56.453125 20.578125 L 30.980469 20.582031 C 30.714844 20.488281 30.171875 19.617188 29.878906 19.148438 C 29.152344 17.992188 28.402344 16.789062 27.15625 16.789062 Z M 16.761719 27.203125 C 16.242188 27.203125 15.816406 27.625 15.816406 28.148438 L 15.816406 53.703125 C 15.816406 55.265625 17.089844 56.539062 18.652344 56.539062 L 56.453125 56.539062 C 58.015625 56.539062 59.289062 55.265625 59.289062 53.703125 L 59.289062 28.148438 C 59.289062 27.625 58.863281 27.203125 58.34375 27.203125 Z M 33.503906 32.878906 C 35.125 32.878906 36.5625 33.726562 37.554688 34.773438 C 38.542969 33.726562 39.980469 32.878906 41.601562 32.878906 C 44.585938 32.878906 47.003906 35.113281 47.003906 37.867188 C 47.003906 42.851562 37.554688 49.914062 37.554688 49.914062 C 37.554688 49.914062 28.101562 42.761719 28.101562 37.867188 C 28.101562 35.113281 30.519531 32.878906 33.503906 32.878906 Z M 33.503906 32.878906"/></g></svg>