<svg xmlns="http://www.w3.org/2000/svg" width="75" viewBox="0 0 75 75" height="75" version="1.0"><defs><clipPath id="a"><path d="M 18 39 L 57 39 L 57 52.761719 L 18 52.761719 Z M 18 39"/></clipPath><clipPath id="b"><path d="M 17.097656 17.511719 L 57.597656 17.511719 L 57.597656 41 L 17.097656 41 Z M 17.097656 17.511719"/></clipPath></defs><path fill="#E3E5EC" d="M 37.5 0 C 16.789062 0 0 16.789062 0 37.5 C 0 58.210938 16.789062 75 37.5 75 C 58.210938 75 75 58.210938 75 37.5 C 75 16.789062 58.210938 0 37.5 0 Z M 37.5 0"/><g clip-path="url(#a)"><path fill="#083F89" d="M 25.324219 42.261719 C 22.527344 42.261719 20.003906 41.085938 18.207031 39.199219 L 18.207031 48.847656 C 18.207031 51.007812 19.945312 52.761719 22.085938 52.761719 L 52.609375 52.761719 C 54.753906 52.761719 56.492188 51.007812 56.492188 48.847656 L 56.492188 39.199219 C 54.691406 41.085938 52.167969 42.261719 49.371094 42.261719 L 41.449219 42.261719 L 41.449219 45.183594 C 41.449219 46.085938 40.726562 46.8125 39.835938 46.8125 L 34.859375 46.8125 C 33.96875 46.8125 33.246094 46.085938 33.246094 45.183594 L 33.246094 42.261719 Z M 25.324219 42.261719"/></g><g clip-path="url(#b)"><path fill="#083F89" d="M 54.191406 24.046875 L 48.710938 24.046875 C 48.710938 23.277344 48.089844 22.652344 47.328125 22.652344 L 46.394531 22.652344 C 46.167969 22.652344 45.984375 22.46875 45.984375 22.238281 L 45.984375 21.132812 C 45.984375 19.132812 44.378906 17.511719 42.398438 17.511719 L 32.296875 17.511719 C 30.316406 17.511719 28.710938 19.132812 28.710938 21.132812 L 28.710938 22.238281 C 28.710938 22.46875 28.527344 22.652344 28.300781 22.652344 L 27.371094 22.652344 C 26.605469 22.652344 25.988281 23.277344 25.984375 24.046875 L 20.503906 24.046875 C 18.644531 24.046875 17.136719 25.570312 17.136719 27.445312 L 17.136719 32.011719 C 17.136719 37.308594 21.390625 40.691406 26.636719 40.691406 L 33.246094 40.691406 L 33.246094 37.921875 C 33.246094 37.023438 33.96875 36.292969 34.859375 36.292969 L 39.835938 36.292969 C 40.730469 36.292969 41.453125 37.023438 41.453125 37.921875 L 41.453125 40.691406 L 48.058594 40.691406 C 53.304688 40.691406 57.558594 37.308594 57.558594 32.011719 L 57.558594 27.445312 C 57.558594 25.570312 56.050781 24.046875 54.191406 24.046875 Z M 42.875 22.652344 L 42.875 24.046875 L 31.820312 24.046875 L 31.820312 21.132812 C 31.820312 20.867188 32.035156 20.648438 32.296875 20.648438 L 42.398438 20.648438 C 42.660156 20.648438 42.875 20.867188 42.875 21.132812 Z M 42.875 22.652344"/></g><path fill="#083F89" d="M 35.535156 45.246094 L 39.164062 45.246094 C 39.566406 45.246094 39.894531 44.914062 39.894531 44.503906 L 39.894531 38.601562 C 39.894531 38.191406 39.566406 37.863281 39.164062 37.863281 L 35.535156 37.863281 C 35.128906 37.863281 34.800781 38.191406 34.800781 38.601562 L 34.800781 44.503906 C 34.800781 44.914062 35.128906 45.246094 35.535156 45.246094 Z M 35.535156 45.246094"/></svg>