<svg xmlns="http://www.w3.org/2000/svg" width="75" viewBox="0 0 75 75" height="75" version="1.0"><defs><clipPath id="a"><path d="M 17 19.269531 L 34 19.269531 L 34 27 L 17 27 Z M 17 19.269531"/></clipPath><clipPath id="b"><path d="M 11.269531 25 L 63.71875 25 L 63.71875 55.773438 L 11.269531 55.773438 Z M 11.269531 25"/></clipPath></defs><path fill="#E3E5EC" d="M 37.550781 0 C 16.8125 0 0 16.8125 0 37.550781 C 0 58.292969 16.8125 75.105469 37.550781 75.105469 C 58.292969 75.105469 75.105469 58.292969 75.105469 37.550781 C 75.105469 16.8125 58.292969 0 37.550781 0 Z M 37.550781 0"/><path fill="#083F89" d="M 58.269531 50.097656 L 16.71875 50.097656 C 15.898438 50.097656 15.21875 49.46875 15.148438 48.652344 L 13.039062 23.378906 C 12.964844 22.460938 13.6875 21.671875 14.609375 21.671875 L 60.378906 21.671875 C 61.300781 21.671875 62.027344 22.460938 61.949219 23.378906 L 59.839844 48.652344 C 59.769531 49.46875 59.089844 50.097656 58.269531 50.097656"/><g clip-path="url(#a)"><path fill="#083F89" d="M 31.925781 26.09375 L 18.828125 26.09375 C 17.90625 26.09375 17.15625 25.34375 17.15625 24.421875 L 17.15625 20.949219 C 17.15625 20.023438 17.90625 19.273438 18.828125 19.273438 L 31.925781 19.273438 C 32.847656 19.273438 33.597656 20.023438 33.597656 20.949219 L 33.597656 24.421875 C 33.597656 25.34375 32.847656 26.09375 31.925781 26.09375"/></g><g clip-path="url(#b)"><path fill="#5BA1C5" d="M 59.703125 55.757812 L 15.289062 55.757812 C 14.414062 55.757812 13.683594 55.085938 13.609375 54.210938 L 11.355469 27.195312 C 11.273438 26.214844 12.046875 25.371094 13.03125 25.371094 L 61.957031 25.371094 C 62.941406 25.371094 63.714844 26.214844 63.632812 27.195312 L 61.378906 54.210938 C 61.304688 55.085938 60.578125 55.757812 59.703125 55.757812"/></g></svg>