<svg xmlns="http://www.w3.org/2000/svg" width="375" viewBox="0 0 375 375" height="375" version="1.0"><defs><clipPath id="a"><path d="M 160 51.691406 L 207 51.691406 L 207 97 L 160 97 Z M 160 51.691406"/></clipPath><clipPath id="b"><path d="M 278 160 L 323.191406 160 L 323.191406 207 L 278 207 Z M 278 160"/></clipPath><clipPath id="c"><path d="M 168 278 L 215 278 L 215 323.191406 L 168 323.191406 Z M 168 278"/></clipPath><clipPath id="d"><path d="M 51.691406 168 L 97 168 L 97 215 L 51.691406 215 Z M 51.691406 168"/></clipPath></defs><path fill="#E3E5EC" d="M 187.5 0 C 83.945312 0 0 83.945312 0 187.5 C 0 291.054688 83.945312 375 187.5 375 C 291.054688 375 375 291.054688 375 187.5 C 375 83.945312 291.054688 0 187.5 0 Z M 187.5 0"/><g clip-path="url(#a)"><path fill="#083F89" d="M 206.523438 69.726562 C 206.59375 70.675781 206.074219 71.371094 205.335938 71.976562 C 202.417969 74.382812 199.527344 76.832031 196.574219 79.195312 C 195.777344 79.835938 195.605469 80.441406 195.855469 81.414062 C 196.800781 84.996094 197.640625 88.605469 198.53125 92.199219 C 198.871094 93.566406 198.550781 94.726562 197.421875 95.59375 C 196.4375 96.355469 195.113281 96.3125 193.867188 95.53125 C 190.601562 93.480469 187.335938 91.445312 184.097656 89.351562 C 183.398438 88.902344 182.921875 88.9375 182.230469 89.367188 C 179.128906 91.351562 175.980469 93.257812 172.851562 95.210938 C 171.96875 95.777344 171.027344 96.078125 169.996094 95.835938 C 168.414062 95.457031 167.511719 93.871094 167.917969 92.25 C 168.898438 88.339844 169.875 84.425781 170.898438 80.519531 C 171.050781 79.921875 170.921875 79.585938 170.488281 79.222656 C 167.71875 76.894531 164.964844 74.554688 162.195312 72.226562 C 161.175781 71.371094 160.238281 70.503906 160.351562 68.980469 C 160.457031 67.507812 161.5625 66.347656 163.042969 66.253906 C 167.113281 65.984375 171.183594 65.699219 175.261719 65.457031 C 175.902344 65.421875 176.089844 65.074219 176.300781 64.582031 C 177.667969 61.207031 179.0625 57.847656 180.445312 54.46875 C 180.574219 54.167969 180.6875 53.847656 180.835938 53.554688 C 181.414062 52.402344 182.332031 51.761719 183.632812 51.777344 C 184.949219 51.796875 185.839844 52.460938 186.324219 53.664062 C 187.777344 57.292969 189.234375 60.921875 190.652344 64.566406 C 190.9375 65.292969 191.269531 65.636719 192.152344 65.691406 C 195.71875 65.882812 199.285156 66.183594 202.851562 66.460938 C 203.378906 66.503906 203.925781 66.566406 204.4375 66.710938 C 205.742188 67.074219 206.53125 68.226562 206.523438 69.726562"/></g><path fill="#083F89" d="M 284.285156 117.652344 C 283.660156 118.371094 282.796875 118.492188 281.851562 118.40625 C 278.085938 118.042969 274.3125 117.730469 270.554688 117.316406 C 269.53125 117.203125 268.988281 117.507812 268.476562 118.371094 C 266.613281 121.574219 264.65625 124.71875 262.746094 127.886719 C 262.015625 129.097656 260.96875 129.6875 259.558594 129.503906 C 258.328125 129.347656 257.421875 128.386719 257.089844 126.941406 C 256.226562 123.195312 255.351562 119.445312 254.554688 115.679688 C 254.371094 114.855469 254.007812 114.546875 253.210938 114.363281 C 249.621094 113.566406 246.042969 112.691406 242.453125 111.871094 C 241.429688 111.628906 240.546875 111.195312 239.992188 110.285156 C 239.144531 108.898438 239.621094 107.144531 241.058594 106.277344 C 244.519531 104.207031 247.976562 102.121094 251.464844 100.085938 C 251.984375 99.785156 252.148438 99.445312 252.097656 98.882812 C 251.777344 95.28125 251.480469 91.679688 251.167969 88.070312 C 251.046875 86.746094 251.003906 85.464844 252.15625 84.46875 C 253.273438 83.507812 254.882812 83.464844 256 84.453125 C 259.066406 87.136719 262.148438 89.808594 265.195312 92.519531 C 265.679688 92.953125 266.050781 92.847656 266.546875 92.640625 C 269.902344 91.222656 273.273438 89.828125 276.632812 88.425781 C 276.941406 88.296875 277.246094 88.148438 277.558594 88.054688 C 278.777344 87.644531 279.878906 87.84375 280.785156 88.773438 C 281.714844 89.714844 281.867188 90.816406 281.359375 92.019531 C 279.816406 95.609375 278.285156 99.203125 276.71875 102.78125 C 276.398438 103.496094 276.390625 103.972656 276.976562 104.632812 C 279.367188 107.289062 281.667969 110.027344 284 112.746094 C 284.34375 113.152344 284.683594 113.574219 284.941406 114.042969 C 285.601562 115.21875 285.347656 116.597656 284.285156 117.652344"/><g clip-path="url(#b)"><path fill="#083F89" d="M 305.382812 206.523438 C 304.429688 206.59375 303.738281 206.074219 303.132812 205.335938 C 300.726562 202.417969 298.273438 199.527344 295.902344 196.574219 C 295.269531 195.777344 294.664062 195.605469 293.695312 195.855469 C 290.109375 196.800781 286.5 197.640625 282.90625 198.53125 C 281.539062 198.871094 280.378906 198.550781 279.515625 197.421875 C 278.753906 196.4375 278.796875 195.113281 279.574219 193.867188 C 281.625 190.601562 283.660156 187.328125 285.757812 184.097656 C 286.207031 183.398438 286.171875 182.914062 285.738281 182.230469 C 283.757812 179.128906 281.851562 175.980469 279.894531 172.851562 C 279.339844 171.96875 279.03125 171.035156 279.273438 169.996094 C 279.652344 168.414062 281.226562 167.511719 282.855469 167.917969 C 286.769531 168.898438 290.683594 169.875 294.585938 170.898438 C 295.175781 171.050781 295.523438 170.921875 295.886719 170.5 C 298.214844 167.71875 300.550781 164.964844 302.878906 162.195312 C 303.738281 161.175781 304.605469 160.238281 306.128906 160.351562 C 307.597656 160.457031 308.757812 161.5625 308.855469 163.042969 C 309.121094 167.113281 309.410156 171.183594 309.652344 175.261719 C 309.6875 175.902344 310.03125 176.089844 310.523438 176.300781 C 313.902344 177.667969 317.261719 179.0625 320.636719 180.445312 C 320.941406 180.574219 321.261719 180.6875 321.554688 180.835938 C 322.707031 181.414062 323.347656 182.332031 323.328125 183.632812 C 323.3125 184.949219 322.65625 185.839844 321.441406 186.324219 C 317.816406 187.777344 314.1875 189.234375 310.542969 190.652344 C 309.816406 190.9375 309.46875 191.269531 309.417969 192.152344 C 309.226562 195.71875 308.921875 199.285156 308.648438 202.851562 C 308.601562 203.378906 308.542969 203.925781 308.394531 204.4375 C 308.03125 205.742188 306.878906 206.53125 305.382812 206.523438"/></g><path fill="#083F89" d="M 257.453125 284.285156 C 256.734375 283.660156 256.613281 282.796875 256.703125 281.851562 C 257.066406 278.085938 257.375 274.3125 257.792969 270.554688 C 257.90625 269.53125 257.601562 268.988281 256.734375 268.476562 C 253.53125 266.605469 250.390625 264.65625 247.222656 262.746094 C 246.007812 262.015625 245.421875 260.96875 245.601562 259.558594 C 245.757812 258.328125 246.71875 257.421875 248.164062 257.082031 C 251.914062 256.226562 255.664062 255.351562 259.429688 254.554688 C 260.25 254.371094 260.5625 254.007812 260.746094 253.222656 C 261.542969 249.621094 262.414062 246.042969 263.238281 242.453125 C 263.480469 241.429688 263.921875 240.546875 264.824219 239.992188 C 266.207031 239.136719 267.964844 239.621094 268.832031 241.058594 C 270.898438 244.519531 272.988281 247.976562 275.019531 251.464844 C 275.324219 251.984375 275.660156 252.148438 276.222656 252.097656 C 279.824219 251.777344 283.425781 251.480469 287.039062 251.167969 C 288.363281 251.046875 289.636719 251.011719 290.640625 252.15625 C 291.601562 253.273438 291.644531 254.882812 290.65625 256 C 287.972656 259.066406 285.296875 262.148438 282.578125 265.195312 C 282.15625 265.671875 282.257812 266.050781 282.464844 266.546875 C 283.886719 269.902344 285.28125 273.261719 286.683594 276.632812 C 286.8125 276.941406 286.960938 277.246094 287.0625 277.558594 C 287.460938 278.777344 287.261719 279.878906 286.335938 280.785156 C 285.394531 281.703125 284.292969 281.867188 283.097656 281.359375 C 279.503906 279.816406 275.902344 278.285156 272.328125 276.71875 C 271.609375 276.398438 271.132812 276.390625 270.476562 276.976562 C 267.816406 279.367188 265.082031 281.667969 262.363281 284 C 261.957031 284.34375 261.53125 284.683594 261.066406 284.941406 C 259.886719 285.601562 258.511719 285.347656 257.453125 284.285156"/><g clip-path="url(#c)"><path fill="#083F89" d="M 168.585938 305.382812 C 168.515625 304.429688 169.042969 303.738281 169.769531 303.132812 C 172.6875 300.726562 175.582031 298.273438 178.53125 295.910156 C 179.328125 295.269531 179.503906 294.671875 179.25 293.695312 C 178.308594 290.109375 177.46875 286.5 176.574219 282.90625 C 176.238281 281.539062 176.558594 280.378906 177.683594 279.515625 C 178.671875 278.753906 179.996094 278.796875 181.242188 279.574219 C 184.507812 281.625 187.777344 283.660156 191.007812 285.757812 C 191.710938 286.207031 192.1875 286.171875 192.878906 285.738281 C 195.976562 283.757812 199.128906 281.851562 202.253906 279.894531 C 203.136719 279.332031 204.074219 279.03125 205.113281 279.273438 C 206.695312 279.652344 207.597656 281.238281 207.1875 282.855469 C 206.210938 286.769531 205.234375 290.683594 204.210938 294.585938 C 204.054688 295.183594 204.183594 295.523438 204.617188 295.886719 C 207.386719 298.214844 210.140625 300.550781 212.910156 302.878906 C 213.933594 303.738281 214.867188 304.605469 214.753906 306.128906 C 214.652344 307.597656 213.542969 308.757812 212.0625 308.855469 C 207.996094 309.121094 203.925781 309.410156 199.847656 309.652344 C 199.207031 309.6875 199.015625 310.03125 198.808594 310.523438 C 197.441406 313.902344 196.046875 317.261719 194.660156 320.636719 C 194.53125 320.941406 194.417969 321.261719 194.273438 321.554688 C 193.691406 322.707031 192.773438 323.347656 191.476562 323.328125 C 190.160156 323.3125 189.269531 322.65625 188.785156 321.441406 C 187.328125 317.816406 185.875 314.1875 184.453125 310.542969 C 184.167969 309.816406 183.839844 309.46875 182.957031 309.417969 C 179.390625 309.226562 175.824219 308.921875 172.257812 308.648438 C 171.726562 308.601562 171.183594 308.542969 170.671875 308.394531 C 169.363281 308.03125 168.578125 306.878906 168.585938 305.382812"/></g><path fill="#083F89" d="M 90.824219 257.453125 C 91.445312 256.734375 92.3125 256.613281 93.257812 256.710938 C 97.023438 257.066406 100.796875 257.375 104.554688 257.792969 C 105.574219 257.90625 106.121094 257.601562 106.632812 256.734375 C 108.503906 253.53125 110.449219 250.390625 112.363281 247.214844 C 113.097656 246.007812 114.136719 245.421875 115.550781 245.601562 C 116.777344 245.757812 117.6875 246.71875 118.015625 248.164062 C 118.882812 251.914062 119.757812 255.664062 120.5625 259.429688 C 120.734375 260.25 121.097656 260.5625 121.894531 260.746094 C 125.488281 261.542969 129.0625 262.414062 132.648438 263.238281 C 133.679688 263.480469 134.5625 263.921875 135.117188 264.824219 C 135.964844 266.207031 135.488281 267.964844 134.050781 268.820312 C 130.585938 270.898438 127.132812 272.976562 123.644531 275.019531 C 123.117188 275.324219 122.960938 275.660156 123.011719 276.222656 C 123.332031 279.824219 123.625 283.425781 123.9375 287.039062 C 124.050781 288.363281 124.101562 289.644531 122.941406 290.640625 C 121.835938 291.601562 120.222656 291.644531 119.109375 290.65625 C 116.042969 287.972656 112.960938 285.296875 109.914062 282.585938 C 109.429688 282.15625 109.054688 282.257812 108.5625 282.464844 C 105.203125 283.886719 101.835938 285.28125 98.476562 286.683594 C 98.164062 286.8125 97.863281 286.960938 97.550781 287.054688 C 96.328125 287.460938 95.230469 287.261719 94.3125 286.335938 C 93.394531 285.394531 93.238281 284.292969 93.75 283.089844 C 95.289062 279.496094 96.824219 275.902344 98.390625 272.328125 C 98.710938 271.609375 98.71875 271.132812 98.128906 270.476562 C 95.742188 267.816406 93.4375 265.082031 91.109375 262.363281 C 90.761719 261.957031 90.425781 261.53125 90.164062 261.066406 C 89.507812 259.886719 89.757812 258.511719 90.824219 257.453125"/><g clip-path="url(#d)"><path fill="#083F89" d="M 69.726562 168.585938 C 70.675781 168.515625 71.371094 169.035156 71.976562 169.769531 C 74.382812 172.6875 76.832031 175.582031 79.203125 178.53125 C 79.84375 179.328125 80.433594 179.503906 81.414062 179.25 C 84.996094 178.308594 88.605469 177.46875 92.199219 176.574219 C 93.566406 176.238281 94.726562 176.558594 95.59375 177.683594 C 96.355469 178.671875 96.3125 179.996094 95.523438 181.242188 C 93.480469 184.507812 91.445312 187.777344 89.351562 191.007812 C 88.902344 191.710938 88.9375 192.195312 89.367188 192.878906 C 91.351562 195.976562 93.257812 199.128906 95.210938 202.253906 C 95.765625 203.136719 96.078125 204.082031 95.835938 205.113281 C 95.457031 206.695312 93.878906 207.597656 92.25 207.1875 C 88.339844 206.210938 84.425781 205.234375 80.519531 204.210938 C 79.933594 204.054688 79.585938 204.183594 79.222656 204.609375 C 76.894531 207.386719 74.554688 210.140625 72.226562 212.910156 C 71.371094 213.933594 70.496094 214.867188 68.980469 214.753906 C 67.507812 214.652344 66.347656 213.542969 66.253906 212.0625 C 65.984375 207.996094 65.699219 203.925781 65.457031 199.847656 C 65.421875 199.207031 65.074219 199.007812 64.582031 198.808594 C 61.207031 197.441406 57.839844 196.046875 54.46875 194.660156 C 54.167969 194.53125 53.847656 194.417969 53.554688 194.273438 C 52.410156 193.691406 51.761719 192.773438 51.777344 191.476562 C 51.796875 190.160156 52.453125 189.269531 53.664062 188.785156 C 57.292969 187.328125 60.921875 185.875 64.566406 184.453125 C 65.292969 184.167969 65.636719 183.839844 65.691406 182.957031 C 65.871094 179.390625 66.183594 175.824219 66.460938 172.257812 C 66.503906 171.726562 66.566406 171.183594 66.710938 170.671875 C 67.074219 169.375 68.226562 168.578125 69.726562 168.585938"/></g><path fill="#083F89" d="M 117.652344 90.824219 C 118.371094 91.445312 118.492188 92.3125 118.40625 93.257812 C 118.042969 97.023438 117.730469 100.796875 117.316406 104.554688 C 117.203125 105.574219 117.507812 106.121094 118.371094 106.632812 C 121.574219 108.492188 124.71875 110.449219 127.894531 112.363281 C 129.097656 113.089844 129.6875 114.136719 129.503906 115.550781 C 129.347656 116.777344 128.386719 117.6875 126.941406 118.023438 C 123.195312 118.882812 119.445312 119.757812 115.679688 120.554688 C 114.855469 120.734375 114.546875 121.097656 114.363281 121.886719 C 113.566406 125.488281 112.691406 129.0625 111.859375 132.65625 C 111.628906 133.679688 111.1875 134.5625 110.285156 135.117188 C 108.898438 135.972656 107.144531 135.488281 106.277344 134.050781 C 104.207031 130.585938 102.128906 127.132812 100.085938 123.644531 C 99.785156 123.125 99.445312 122.960938 98.882812 123.011719 C 95.28125 123.332031 91.679688 123.625 88.070312 123.9375 C 86.746094 124.058594 85.472656 124.09375 84.46875 122.953125 C 83.507812 121.835938 83.464844 120.222656 84.453125 119.109375 C 87.136719 116.042969 89.808594 112.960938 92.527344 109.914062 C 92.953125 109.4375 92.847656 109.054688 92.640625 108.5625 C 91.222656 105.203125 89.828125 101.835938 88.425781 98.476562 C 88.296875 98.171875 88.148438 97.863281 88.042969 97.550781 C 87.644531 96.328125 87.84375 95.230469 88.773438 94.320312 C 89.714844 93.402344 90.816406 93.238281 92.007812 93.75 C 95.601562 95.289062 99.203125 96.824219 102.78125 98.390625 C 103.496094 98.710938 103.972656 98.726562 104.632812 98.128906 C 107.289062 95.742188 110.027344 93.4375 112.746094 91.109375 C 113.152344 90.761719 113.574219 90.425781 114.042969 90.164062 C 115.21875 89.507812 116.597656 89.757812 117.652344 90.824219"/><path fill="#083F89" d="M 246.789062 160.292969 L 246.277344 159.929688 C 246.105469 159.78125 246.019531 159.738281 245.929688 159.675781 L 245.609375 159.476562 C 245.523438 159.417969 245.464844 159.375 245.378906 159.332031 L 244.710938 159.027344 C 244.433594 158.898438 244.113281 158.777344 243.75 158.636719 C 238.441406 156.949219 232.695312 157.660156 227.265625 158.214844 C 227.136719 158.230469 226.875 158.230469 226.554688 158.257812 C 226.089844 158.273438 225.4375 158.273438 224.667969 158.324219 C 224.367188 158.324219 224.027344 158.324219 223.65625 158.34375 C 223.40625 158.34375 223.128906 158.34375 222.84375 158.359375 C 221.707031 158.386719 220.460938 158.429688 219.300781 158.492188 C 219.050781 158.515625 218.773438 158.515625 218.53125 158.535156 C 218.339844 158.535156 218.167969 158.558594 217.992188 158.578125 C 217.628906 158.601562 217.285156 158.621094 216.964844 158.636719 C 216.234375 158.707031 215.59375 158.792969 215.101562 158.878906 C 214.929688 158.898438 214.753906 158.941406 214.625 158.964844 C 214.609375 158.984375 214.609375 158.984375 214.582031 158.984375 C 214.566406 158.984375 214.539062 159.011719 214.496094 159.011719 C 214.347656 159.011719 214.21875 158.863281 214.21875 158.707031 C 214.21875 158.691406 214.238281 158.636719 214.238281 158.621094 L 215.847656 153.191406 C 216.816406 149.929688 217.804688 146.585938 218.832031 143.324219 C 220.332031 138.578125 220.808594 134.777344 220.355469 131.027344 C 219.820312 126.300781 217.074219 121.992188 213.058594 119.460938 C 210.765625 118.023438 208.195312 117.273438 205.613281 117.273438 C 205.398438 117.273438 205.207031 117.273438 204.988281 117.296875 C 202.503906 117.402344 201 118.8125 200.765625 121.261719 C 200.445312 124.441406 200.097656 127.316406 199.691406 130.015625 C 198.921875 134.828125 197.632812 138.820312 195.683594 142.25 C 194.582031 144.195312 193.320312 145.9375 191.769531 147.574219 C 189.734375 149.738281 187.527344 152.117188 185.121094 154.847656 L 179.648438 161.105469 C 178.359375 162.566406 177.050781 164.003906 175.640625 165.355469 C 175.382812 165.632812 175.019531 165.960938 174.585938 166.351562 C 173.640625 167.164062 172.59375 167.847656 171.40625 168.386719 C 170.742188 168.679688 169.882812 168.941406 168.664062 169.285156 C 164.03125 170.578125 161.347656 171.882812 161.175781 174.6875 C 161.070312 176.238281 161 177.570312 160.957031 178.820312 L 160.957031 179.691406 C 160.914062 180.894531 160.898438 182.054688 160.898438 183.207031 L 160.898438 226.453125 L 168.125 226.425781 L 168.488281 226.496094 C 171 226.875 173.597656 227.308594 176.90625 227.890625 L 178.359375 228.125 C 184.886719 229.214844 190.894531 230.226562 196.902344 230.910156 C 211.664062 232.652344 229.558594 236.960938 240.3125 223.550781 C 244.710938 218.082031 245.136719 210.316406 246.148438 203.640625 C 247.800781 192.695312 249.644531 181.78125 251.167969 170.808594 C 251.722656 166.949219 249.964844 162.722656 246.789062 160.292969"/><path fill="#083F89" d="M 148.128906 163.582031 L 128.484375 163.582031 C 125.914062 163.582031 123.835938 165.660156 123.835938 168.230469 L 123.835938 226.574219 C 123.835938 229.136719 125.914062 231.214844 128.484375 231.214844 L 148.128906 231.214844 C 150.691406 231.214844 152.769531 229.136719 152.769531 226.574219 L 152.769531 168.230469 C 152.769531 165.660156 150.691406 163.582031 148.128906 163.582031"/></svg>